<mxfile host="app.diagrams.net" modified="2024-03-05T16:48:41.087Z" agent="Mozilla/5.0 (X11; Linux x86_64; rv:123.0) Gecko/20100101 Firefox/123.0" etag="CH6J2-7exOjMP9plmPf7" version="24.0.1" type="device">
  <diagram name="Page-1" id="jGknNazgd2JiMj8J5xHa">
    <mxGraphModel dx="938" dy="1322" grid="1" gridSize="10" guides="1" tooltips="1" connect="1" arrows="1" fold="1" page="1" pageScale="1" pageWidth="850" pageHeight="1100" math="0" shadow="0">
      <root>
        <mxCell id="0" />
        <mxCell id="1" parent="0" />
        <mxCell id="QVaJWWwNcft2Wd4UFOt5-6" style="edgeStyle=orthogonalEdgeStyle;rounded=0;orthogonalLoop=1;jettySize=auto;html=1;entryX=0.5;entryY=0;entryDx=0;entryDy=0;exitX=0.5;exitY=1;exitDx=0;exitDy=0;" edge="1" parent="1" source="QVaJWWwNcft2Wd4UFOt5-8" target="QVaJWWwNcft2Wd4UFOt5-10">
          <mxGeometry relative="1" as="geometry">
            <mxPoint x="200" y="320" as="sourcePoint" />
            <mxPoint x="190" y="420" as="targetPoint" />
          </mxGeometry>
        </mxCell>
        <mxCell id="QVaJWWwNcft2Wd4UFOt5-3" style="edgeStyle=orthogonalEdgeStyle;rounded=0;orthogonalLoop=1;jettySize=auto;html=1;exitX=1;exitY=0.5;exitDx=0;exitDy=0;entryX=0.5;entryY=0;entryDx=0;entryDy=0;" edge="1" parent="1" source="QVaJWWwNcft2Wd4UFOt5-2" target="QVaJWWwNcft2Wd4UFOt5-8">
          <mxGeometry relative="1" as="geometry">
            <mxPoint x="240" y="200" as="targetPoint" />
          </mxGeometry>
        </mxCell>
        <mxCell id="QVaJWWwNcft2Wd4UFOt5-2" value="" style="ellipse;whiteSpace=wrap;html=1;aspect=fixed;fillColor=#000000;labelBackgroundColor=#000000;" vertex="1" parent="1">
          <mxGeometry x="70" y="160" width="30" height="30" as="geometry" />
        </mxCell>
        <mxCell id="QVaJWWwNcft2Wd4UFOt5-4" value="Start" style="text;html=1;align=center;verticalAlign=middle;whiteSpace=wrap;rounded=0;" vertex="1" parent="1">
          <mxGeometry x="55" y="130" width="60" height="30" as="geometry" />
        </mxCell>
        <mxCell id="QVaJWWwNcft2Wd4UFOt5-7" value="emergency &amp;lt;&amp;lt;udp&amp;gt;&amp;gt;" style="text;html=1;align=center;verticalAlign=middle;resizable=0;points=[];autosize=1;strokeColor=none;fillColor=none;" vertex="1" parent="1">
          <mxGeometry x="190" y="340" width="120" height="30" as="geometry" />
        </mxCell>
        <mxCell id="QVaJWWwNcft2Wd4UFOt5-8" value="waitForEmergency" style="swimlane;whiteSpace=wrap;html=1;startSize=30;" vertex="1" parent="1">
          <mxGeometry x="130" y="200" width="120" height="90" as="geometry" />
        </mxCell>
        <mxCell id="QVaJWWwNcft2Wd4UFOt5-11" style="edgeStyle=orthogonalEdgeStyle;rounded=0;orthogonalLoop=1;jettySize=auto;html=1;entryX=1;entryY=0.5;entryDx=0;entryDy=0;exitX=1;exitY=0.5;exitDx=0;exitDy=0;" edge="1" parent="1" source="QVaJWWwNcft2Wd4UFOt5-10" target="QVaJWWwNcft2Wd4UFOt5-8">
          <mxGeometry relative="1" as="geometry">
            <Array as="points">
              <mxPoint x="660" y="615" />
              <mxPoint x="660" y="245" />
            </Array>
          </mxGeometry>
        </mxCell>
        <mxCell id="QVaJWWwNcft2Wd4UFOt5-10" value="alarmActive" style="swimlane;whiteSpace=wrap;html=1;" vertex="1" parent="1">
          <mxGeometry x="25" y="450" width="445" height="450" as="geometry" />
        </mxCell>
        <mxCell id="QVaJWWwNcft2Wd4UFOt5-22" style="edgeStyle=orthogonalEdgeStyle;rounded=0;orthogonalLoop=1;jettySize=auto;html=1;exitX=1;exitY=0.25;exitDx=0;exitDy=0;entryX=0;entryY=0.25;entryDx=0;entryDy=0;" edge="1" parent="QVaJWWwNcft2Wd4UFOt5-10" source="QVaJWWwNcft2Wd4UFOt5-14" target="QVaJWWwNcft2Wd4UFOt5-15">
          <mxGeometry relative="1" as="geometry" />
        </mxCell>
        <mxCell id="QVaJWWwNcft2Wd4UFOt5-14" value="ON" style="swimlane;whiteSpace=wrap;html=1;" vertex="1" parent="QVaJWWwNcft2Wd4UFOt5-10">
          <mxGeometry x="30" y="150" width="150" height="150" as="geometry" />
        </mxCell>
        <mxCell id="QVaJWWwNcft2Wd4UFOt5-16" value="&lt;div align=&quot;left&quot;&gt;entry/&lt;/div&gt;&lt;div align=&quot;left&quot;&gt;&lt;span style=&quot;white-space: pre;&quot;&gt;&#x9;&lt;/span&gt;leds_on()&lt;/div&gt;&lt;div align=&quot;left&quot;&gt;&lt;span style=&quot;white-space: pre;&quot;&gt;&#x9;&lt;/span&gt;alarm_buzzer_on()&lt;br&gt;&lt;/div&gt;" style="text;html=1;align=left;verticalAlign=middle;resizable=0;points=[];autosize=1;strokeColor=none;fillColor=none;" vertex="1" parent="QVaJWWwNcft2Wd4UFOt5-14">
          <mxGeometry x="5" y="30" width="140" height="60" as="geometry" />
        </mxCell>
        <mxCell id="QVaJWWwNcft2Wd4UFOt5-19" value="T=1 second" style="text;html=1;align=center;verticalAlign=middle;resizable=0;points=[];autosize=1;strokeColor=none;fillColor=none;" vertex="1" parent="QVaJWWwNcft2Wd4UFOt5-14">
          <mxGeometry x="30" y="110" width="80" height="30" as="geometry" />
        </mxCell>
        <mxCell id="QVaJWWwNcft2Wd4UFOt5-21" style="edgeStyle=orthogonalEdgeStyle;rounded=0;orthogonalLoop=1;jettySize=auto;html=1;exitX=0;exitY=0.75;exitDx=0;exitDy=0;entryX=1;entryY=0.75;entryDx=0;entryDy=0;" edge="1" parent="QVaJWWwNcft2Wd4UFOt5-10" source="QVaJWWwNcft2Wd4UFOt5-15" target="QVaJWWwNcft2Wd4UFOt5-14">
          <mxGeometry relative="1" as="geometry" />
        </mxCell>
        <mxCell id="QVaJWWwNcft2Wd4UFOt5-15" value="OFF" style="swimlane;whiteSpace=wrap;html=1;" vertex="1" parent="QVaJWWwNcft2Wd4UFOt5-10">
          <mxGeometry x="260" y="150" width="150" height="150" as="geometry" />
        </mxCell>
        <mxCell id="QVaJWWwNcft2Wd4UFOt5-17" value="&lt;div align=&quot;left&quot;&gt;entry/&lt;/div&gt;&lt;div align=&quot;left&quot;&gt;&lt;span style=&quot;white-space: pre;&quot;&gt;&#x9;&lt;/span&gt;leds_off()&lt;/div&gt;&lt;div align=&quot;left&quot;&gt;&lt;span style=&quot;white-space: pre;&quot;&gt;&#x9;&lt;/span&gt;alarm_buzzer_off()&lt;br&gt;&lt;/div&gt;" style="text;html=1;align=left;verticalAlign=middle;resizable=0;points=[];autosize=1;strokeColor=none;fillColor=none;" vertex="1" parent="QVaJWWwNcft2Wd4UFOt5-15">
          <mxGeometry x="10" y="30" width="140" height="60" as="geometry" />
        </mxCell>
        <mxCell id="QVaJWWwNcft2Wd4UFOt5-18" value="T=1 second" style="text;html=1;align=center;verticalAlign=middle;resizable=0;points=[];autosize=1;strokeColor=none;fillColor=none;" vertex="1" parent="QVaJWWwNcft2Wd4UFOt5-15">
          <mxGeometry x="32.5" y="110" width="80" height="30" as="geometry" />
        </mxCell>
        <mxCell id="QVaJWWwNcft2Wd4UFOt5-24" style="edgeStyle=orthogonalEdgeStyle;rounded=0;orthogonalLoop=1;jettySize=auto;html=1;exitX=0.5;exitY=1;exitDx=0;exitDy=0;entryX=0.5;entryY=0;entryDx=0;entryDy=0;" edge="1" parent="QVaJWWwNcft2Wd4UFOt5-10" source="QVaJWWwNcft2Wd4UFOt5-23" target="QVaJWWwNcft2Wd4UFOt5-14">
          <mxGeometry relative="1" as="geometry" />
        </mxCell>
        <mxCell id="QVaJWWwNcft2Wd4UFOt5-23" value="" style="ellipse;whiteSpace=wrap;html=1;aspect=fixed;fillColor=#000000;fontColor=#000000;" vertex="1" parent="QVaJWWwNcft2Wd4UFOt5-10">
          <mxGeometry x="90" y="50" width="30" height="30" as="geometry" />
        </mxCell>
        <mxCell id="QVaJWWwNcft2Wd4UFOt5-25" value="&lt;div&gt;exit/&lt;/div&gt;&lt;div&gt;&lt;span style=&quot;white-space: pre;&quot;&gt;&#x9;&lt;/span&gt;leds_off()&lt;/div&gt;&lt;div&gt;&lt;span style=&quot;white-space: pre;&quot;&gt;&#x9;&lt;/span&gt;alarm_buzzer_off()&lt;br&gt;&lt;/div&gt;" style="text;html=1;align=left;verticalAlign=middle;resizable=0;points=[];autosize=1;strokeColor=none;fillColor=none;" vertex="1" parent="QVaJWWwNcft2Wd4UFOt5-10">
          <mxGeometry x="162.5" y="360" width="140" height="60" as="geometry" />
        </mxCell>
        <mxCell id="QVaJWWwNcft2Wd4UFOt5-12" value="emergency over &amp;lt;&amp;lt;udp&amp;gt;&amp;gt;" style="text;html=1;align=center;verticalAlign=middle;resizable=0;points=[];autosize=1;strokeColor=none;fillColor=none;" vertex="1" parent="1">
          <mxGeometry x="650" y="370" width="150" height="30" as="geometry" />
        </mxCell>
      </root>
    </mxGraphModel>
  </diagram>
</mxfile>
